<?xml version="1.0" encoding="UTF-8" standalone="no"?>
<svg
   enable-background="new 0 0 850.39 793.7"
   version="1.1"
   viewBox="0 0 850.39 793.7"
   id="svg1"
   sodipodi:docname="gear-1119298.svg"
   inkscape:version="1.3.2 (091e20e, 2023-11-25, custom)"
   xmlns:inkscape="http://www.inkscape.org/namespaces/inkscape"
   xmlns:sodipodi="http://sodipodi.sourceforge.net/DTD/sodipodi-0.dtd"
   xmlns="http://www.w3.org/2000/svg"
   xmlns:svg="http://www.w3.org/2000/svg">
  <defs
     id="defs1" />
  <sodipodi:namedview
     id="namedview1"
     pagecolor="#ffffff"
     bordercolor="#000000"
     borderopacity="0.25"
     inkscape:showpageshadow="2"
     inkscape:pageopacity="0.0"
     inkscape:pagecheckerboard="0"
     inkscape:deskcolor="#d1d1d1"
     inkscape:zoom="0.57207806"
     inkscape:cx="424.76721"
     inkscape:cy="520.90794"
     inkscape:window-width="1440"
     inkscape:window-height="914"
     inkscape:window-x="-6"
     inkscape:window-y="-6"
     inkscape:window-maximized="1"
     inkscape:current-layer="svg1" />
  <path
     d="m 659.91113,400.63837 c 0.091,-2.83273 2.23835,-6.1894 4.7739,-7.45888 l 51.48036,-25.7797 c 2.53383,-1.26949 4.24136,-4.59695 3.79301,-7.39704 l -11.8686,-54.70133 c -0.75928,-2.73138 -3.6968,-5.11403 -6.52437,-5.29784 l -58.54414,-3.78613 c -2.8293,-0.18381 -6.19284,-2.40155 -7.47435,-4.92849 l -7.96049,-14.63776 c -1.42582,-2.44964 -1.41035,-6.44879 0.036,-8.88641 l 29.56238,-49.84499 c 1.44642,-2.43762 1.10115,-6.17737 -0.76616,-8.30921 l -39.83333,-40.61673 c -2.09577,-1.90851 -5.83895,-2.34485 -8.31609,-0.96886 l -50.93924,28.26713 c -2.47885,1.376 -6.49002,1.2987 -8.91562,-0.16834 l -13.76509,-7.81791 c -2.5029,-1.32961 -4.63474,-4.7361 -4.7361,-7.56883 l -2.09574,-58.39642 c -0.10136,-2.83272 -2.40498,-5.82005 -5.11747,-6.63947 l -55.17031,-13.19992 c -2.78977,-0.50504 -6.16877,1.12347 -7.51041,3.62122 l -27.39618,50.99594 c -1.34164,2.49775 -3.61091,4.51794 -5.0436,4.49045 h -1.30727 c -7.95019,0 -18.41015,0.78849 -18.41015,0.78849 -2.82585,0.21301 -6.46253,-1.51686 -8.07903,-3.84625 l -33.48937,-48.21647 c -1.6165,-2.32768 -5.17416,-3.61263 -7.90553,-2.85678 l -52.69662,17.77626 c -2.63001,1.05819 -4.60038,4.23621 -4.37878,7.06206 l 4.49217,57.31074 c 0.2216,2.82586 -1.54606,6.39554 -3.92699,7.933 l -16.75414,11.60061 c -2.27616,1.68864 -6.28045,2.1851 -8.90016,1.10114 l -54.25469,-22.46254 c -2.61972,-1.08396 -6.31309,-0.24737 -8.20958,1.85872 l -33.81406,41.93086 c -1.65773,2.29849 -1.61306,6.02621 0.10135,8.28346 l 34.5974,45.56754 c 1.71441,2.25726 2.14215,6.2083 0.95168,8.78163 l -9.40863,22.52437 c -0.99463,2.65408 -4.09191,5.23772 -6.88169,5.74104 l -57.55983,10.39469 c -2.78978,0.50333 -5.43527,3.2055 -5.8819,6.00558 0,0 -5.6311,35.3962 -5.6311,56.52569 v 0.11338 c 0.002,0.1254 2.18338,1.02212 4.84432,1.99441 l 53.7153,19.61951 c 2.66265,0.9723 5.16727,4.06442 5.56754,6.86966 l 5.03499,27.4546 c 0.62874,2.764 -0.55485,6.60511 -2.62829,8.53768 l -42.54416,39.6221 c -2.07344,1.93256 -2.81383,5.62422 -1.64397,8.20614 l 23.20292,44.98692 c 1.42925,2.44793 4.86151,3.94245 7.62724,3.3206 l 56.03438,-12.59009 c 2.76574,-0.62186 6.56217,0.60812 8.43805,2.73309 l 20.65537,21.47821 c 2.04939,1.95834 3.15397,5.80632 2.45308,8.55315 l -14.26154,55.91241 c -0.70088,2.74684 0.68542,6.23578 3.0801,7.75264 l 43.7432,24.65107 c 2.53725,1.26434 6.24093,0.64763 8.23191,-1.36911 l 40.57549,-41.13208 c 1.99099,-2.01847 5.85958,-3.06636 8.5961,-2.33113 l 28.8512,6.41273 c 2.78978,0.49817 5.80632,3.10586 6.70132,5.79601 l 18.10436,54.36806 c 0.895,2.68843 3.94589,4.95427 6.78033,5.03501 0,0 1.51857,0.0429 4.87524,0.0429 17.40349,0 45.91971,-3.72773 45.91971,-3.72773 2.8104,-0.36761 5.58815,-2.93751 6.17051,-5.71183 l 11.98368,-56.95343 c 0.58407,-2.77432 3.26047,-5.77883 5.9489,-6.67726 l 25.38288,-9.62337 c 2.60768,-1.11316 6.54498,-0.56861 8.75242,1.20936 l 44.52653,35.87032 c 2.20744,1.77797 5.93172,1.93085 8.27658,0.33841 l 41.7986,-31.69766 c 2.16448,-1.83122 3.1093,-5.49539 2.10093,-8.1443 L 606.28345,551.5905 c -1.00837,-2.64892 -0.3951,-6.63603 1.36226,-8.85893 l 13.79944,-18.81039 c 1.59416,-2.34314 5.20335,-4.01461 8.02233,-3.71055 l 56.96889,6.11553 c 2.81898,0.30234 6.04167,-1.58042 7.16341,-4.18296 l 18.66096,-51.03029 c 0.828,-2.71076 -0.35903,-6.30621 -2.64033,-7.98798 l -47.27852,-34.89111 c -2.2813,-1.68348 -3.92699,-5.36826 -3.6573,-8.19069 z M 425.51121,569.04042 c -95.28027,0 -172.52316,-77.23946 -172.52316,-172.52316 0,-95.28199 77.23946,-172.52315 172.52316,-172.52315 95.2837,0 172.52315,77.23945 172.52315,172.52315 0,95.2837 -77.23945,172.52316 -172.52315,172.52316 z"
     fill="#1E1B1B"
     id="path2"
     style="fill:#e8d4b9;fill-opacity:1;stroke:#000000;stroke-width:34.3568;stroke-linecap:butt;stroke-linejoin:miter;stroke-miterlimit:4;stroke-dasharray:none;stroke-opacity:1;paint-order:stroke fill markers"
     inkscape:label="brown" />
</svg>
